<svg width="75" height="88" viewBox="0 0 75 88" fill="none" xmlns="http://www.w3.org/2000/svg">
<mask id="mask0_492_52" style="mask-type:alpha" maskUnits="userSpaceOnUse" x="0" y="0" width="75" height="88">
<rect width="75" height="88" fill="#D9D9D9"/>
</mask>
<g mask="url(#mask0_492_52)">
<path d="M37.5 22.0002C35.7813 22.0002 34.3099 21.2821 33.086 19.846C31.862 18.4099 31.25 16.6835 31.25 14.6668C31.25 12.6502 31.862 10.9238 33.086 9.48766C34.3099 8.05155 35.7813 7.3335 37.5 7.3335C39.2188 7.3335 40.6901 8.05155 41.9141 9.48766C43.1381 10.9238 43.75 12.6502 43.75 14.6668C43.75 16.6835 43.1381 18.4099 41.9141 19.846C40.6901 21.2821 39.2188 22.0002 37.5 22.0002ZM28.125 77.0002V33.0002C25.5729 32.7557 22.9948 32.4196 20.3907 31.9918C17.7865 31.5641 15.2344 31.0141 12.7344 30.3418C11.849 30.0974 11.1328 29.5168 10.586 28.6002C10.0391 27.6835 9.89586 26.7057 10.1563 25.6668C10.4167 24.6279 10.9636 23.8641 11.7969 23.3752C12.6302 22.8863 13.5157 22.7641 14.4532 23.0085C18.099 23.9252 21.8881 24.5974 25.8203 25.0252C29.7526 25.4529 33.6459 25.6668 37.5 25.6668C41.3542 25.6668 45.2474 25.4529 49.1797 25.0252C53.112 24.5974 56.9011 23.9252 60.5469 23.0085C61.4844 22.7641 62.3698 22.8863 63.2032 23.3752C64.0365 23.8641 64.5834 24.6279 64.8438 25.6668C65.1042 26.7057 64.961 27.6835 64.4141 28.6002C63.8672 29.5168 63.1511 30.0974 62.2657 30.3418C59.7657 31.0141 57.2136 31.5641 54.6094 31.9918C52.0052 32.4196 49.4271 32.7557 46.875 33.0002V77.0002C46.875 78.0391 46.5756 78.9099 45.9766 79.6127C45.3776 80.3154 44.6354 80.6668 43.75 80.6668C42.8646 80.6668 42.1224 80.3154 41.5235 79.6127C40.9245 78.9099 40.625 78.0391 40.625 77.0002V58.6668H34.375V77.0002C34.375 78.0391 34.0756 78.9099 33.4766 79.6127C32.8776 80.3154 32.1354 80.6668 31.25 80.6668C30.3646 80.6668 29.6224 80.3154 29.0235 79.6127C28.4245 78.9099 28.125 78.0391 28.125 77.0002Z" fill="#1C1B1F"/>
</g>
</svg>
