<svg width="16" height="16" viewBox="0 0 16 16" fill="none" xmlns="http://www.w3.org/2000/svg">
<path d="M11.625 5V4.625C11.6243 3.67935 11.2544 2.77133 10.5942 2.09427C9.93404 1.41721 9.03565 1.02459 8.09031 1H7.90969C6.96435 1.02459 6.06596 1.41721 5.40576 2.09427C4.74557 2.77133 4.37574 3.67935 4.375 4.625V5H1.625C1.59185 5 1.56005 5.01317 1.53661 5.03661C1.51317 5.06005 1.5 5.09185 1.5 5.125V14.5C1.5 14.6326 1.55268 14.7598 1.64645 14.8536C1.74021 14.9473 1.86739 15 2 15H14C14.1326 15 14.2598 14.9473 14.3536 14.8536C14.4473 14.7598 14.5 14.6326 14.5 14.5V5.125C14.5 5.09185 14.4868 5.06005 14.4634 5.03661C14.4399 5.01317 14.4082 5 14.375 5H11.625ZM10.375 5H5.625V4.65625C5.625 3.34875 6.66906 2.26375 7.97656 2.25C8.29033 2.24724 8.60154 2.30661 8.89225 2.4247C9.18295 2.54278 9.44741 2.71725 9.67037 2.93803C9.89333 3.15881 10.0704 3.42154 10.1913 3.71108C10.3123 4.00061 10.3747 4.31122 10.375 4.625V5Z" fill="#1E1E1E"/>
</svg>
