<svg width="18" height="22" viewBox="0 0 18 22" fill="none" xmlns="http://www.w3.org/2000/svg">
<path d="M9.0003 0C10.7513 0 12.1903 0.592 13.1683 1.159C14.4923 1.926 15.0003 3.369 15.0003 4.657V6.367C15.9074 6.93704 16.7833 7.55526 17.6243 8.219C17.8238 8.38696 17.9497 8.62618 17.9753 8.88568C18.001 9.14518 17.9242 9.40442 17.7614 9.60813C17.5987 9.81185 17.3628 9.94394 17.104 9.97623C16.8453 10.0085 16.5841 9.93847 16.3763 9.781C15.9288 9.42869 15.4699 9.09117 15.0003 8.769V15.586C15.0003 16.7567 14.5353 17.8794 13.7075 18.7072C12.8797 19.535 11.757 20 10.5863 20H7.4143C6.24363 20 5.12091 19.535 4.29313 18.7072C3.46534 17.8794 3.0003 16.7567 3.0003 15.586V8.769C2.5333 9.093 2.0703 9.426 1.6253 9.781C1.41816 9.94676 1.15366 10.0234 0.889988 9.99419C0.626312 9.96494 0.385057 9.83213 0.219296 9.625C0.0535362 9.41787 -0.0231514 9.15337 0.00610426 8.88969C0.0353599 8.62602 0.168162 8.38476 0.375296 8.219C1.21661 7.55557 2.09287 6.93768 3.0003 6.368V4.657C3.0003 3.368 3.5083 1.926 4.8323 1.159C5.8103 0.592 7.2503 0 9.0003 0ZM13.0003 9.414L12.8793 9.536L12.7433 9.68C12.3136 10.1708 12.0555 10.7883 12.0083 11.439L12.0003 11.657V15L11.9953 15.15C11.9595 15.6262 11.7545 16.0738 11.4174 16.412C11.0803 16.7502 10.6333 16.9567 10.1573 16.994L10.0003 17H8.0003L7.8503 16.995C7.37413 16.9592 6.92647 16.7542 6.58827 16.4171C6.25006 16.08 6.04363 15.6331 6.0063 15.157L6.0003 15V11.657L5.9933 11.459C5.95051 10.808 5.69668 10.1887 5.2703 9.695L5.1213 9.535L5.0003 9.415V15.585L5.0083 15.777C5.05382 16.3493 5.3018 16.8866 5.70774 17.2926C6.11368 17.6985 6.65101 17.9465 7.2233 17.992L7.4143 18H10.5863L10.7773 17.992C11.3496 17.9465 11.8869 17.6985 12.2929 17.2926C12.6988 16.8866 12.9468 16.3493 12.9923 15.777L13.0003 15.586V9.414ZM9.0003 6C8.4463 6 7.7163 6.192 6.8723 6.547C6.58763 6.66767 6.3013 6.80033 6.0133 6.945L5.5833 7.168L6.5363 8.121C7.40913 8.99407 7.9281 10.1592 7.9933 11.392L8.0003 11.657V15H10.0003V11.657C10.0001 10.4223 10.4567 9.23114 11.2823 8.313L11.4643 8.121L12.4173 7.168C11.9974 6.94059 11.5669 6.73335 11.1273 6.547C10.2853 6.192 9.5553 6 9.0003 6ZM9.0003 2C7.7033 2 6.6103 2.44 5.8353 2.89C5.3233 3.185 5.0003 3.823 5.0003 4.656V5.216C5.3613 5.031 5.7293 4.857 6.0963 4.702C7.0343 4.308 8.0543 4 9.0003 4C9.9463 4 10.9663 4.308 11.9043 4.703C12.2713 4.858 12.6393 5.032 13.0003 5.216V4.656C13.0003 3.824 12.6773 3.186 12.1653 2.889C11.3903 2.44 10.2973 2 9.0003 2Z" fill="#1E1E1E"/>
</svg>
