<svg width="104" height="107" viewBox="0 0 104 107" fill="none" xmlns="http://www.w3.org/2000/svg">
<mask id="mask0_492_139" style="mask-type:alpha" maskUnits="userSpaceOnUse" x="0" y="0" width="104" height="107">
<rect y="0.125977" width="104" height="106.788" fill="#D9D9D9"/>
</mask>
<g mask="url(#mask0_492_139)">
<path d="M26 84.6666V86.8914C26 88.7454 25.3681 90.3212 24.1042 91.619C22.8403 92.9168 21.3056 93.5657 19.5 93.5657C17.6944 93.5657 16.1597 92.9168 14.8958 91.619C13.6319 90.3212 13 88.7454 13 86.8914V55.0774C13 54.5583 13.0361 54.0392 13.1083 53.5201C13.1806 53.001 13.2889 52.519 13.4333 52.074L21.5583 28.3804C22.1361 26.6006 23.1833 25.1545 24.7 24.0421C26.2167 22.9297 27.9139 22.3735 29.7917 22.3735H74.2083C76.0861 22.3735 77.7833 22.9297 79.3 24.0421C80.8167 25.1545 81.8639 26.6006 82.4417 28.3804L90.5667 52.074C90.7111 52.519 90.8194 53.001 90.8917 53.5201C90.9639 54.0392 91 54.5583 91 55.0774V86.8914C91 88.7454 90.3681 90.3212 89.1042 91.619C87.8403 92.9168 86.3056 93.5657 84.5 93.5657C82.6944 93.5657 81.1597 92.9168 79.8958 91.619C78.6319 90.3212 78 88.7454 78 86.8914V84.6666H26ZM25.1333 44.6211H78.8667L74.3167 31.2726H29.6833L25.1333 44.6211ZM32.5 71.3181C34.3056 71.3181 35.8403 70.6692 37.1042 69.3715C38.3681 68.0737 39 66.4978 39 64.6439C39 62.7899 38.3681 61.214 37.1042 59.9163C35.8403 58.6185 34.3056 57.9696 32.5 57.9696C30.6944 57.9696 29.1597 58.6185 27.8958 59.9163C26.6319 61.214 26 62.7899 26 64.6439C26 66.4978 26.6319 68.0737 27.8958 69.3715C29.1597 70.6692 30.6944 71.3181 32.5 71.3181ZM71.5 71.3181C73.3056 71.3181 74.8403 70.6692 76.1042 69.3715C77.3681 68.0737 78 66.4978 78 64.6439C78 62.7899 77.3681 61.214 76.1042 59.9163C74.8403 58.6185 73.3056 57.9696 71.5 57.9696C69.6944 57.9696 68.1597 58.6185 66.8958 59.9163C65.6319 61.214 65 62.7899 65 64.6439C65 66.4978 65.6319 68.0737 66.8958 69.3715C68.1597 70.6692 69.6944 71.3181 71.5 71.3181Z" fill="#1C1B1F"/>
</g>
</svg>
