<svg width="104" height="90" viewBox="0 0 104 90" fill="none" xmlns="http://www.w3.org/2000/svg">
<path d="M15.6 33.1247C15.6 24.3395 19.435 15.9141 26.2613 9.70199C33.0876 3.48991 42.3461 0 52 0C61.6539 0 70.9124 3.48991 77.7387 9.70199C84.565 15.9141 88.4 24.3395 88.4 33.1247V38.0224C97.2192 39.1723 104 46.0764 104 54.4191V55.6021C104 64.0016 96.0388 71.3647 86.6736 70.972C82.8256 81.004 73.0392 87.7662 62.478 89.4792C60.034 90.2931 57.1428 89.9098 54.6 89.9098C52.5313 89.9098 50.5474 89.162 49.0846 87.8308C47.6218 86.4997 46.8 84.6942 46.8 82.8117C46.8 80.9291 47.6218 79.1237 49.0846 77.7925C50.5474 76.4614 52.5313 75.7135 54.6 75.7135C58.7236 75.7135 63.2892 75.1693 66.0764 78.5954C72.8156 75.6757 78 69.5098 78 61.5173V33.1247C78 26.8495 75.2607 20.8314 70.3848 16.3942C65.5088 11.957 58.8956 9.46419 52 9.46419C45.1044 9.46419 38.4912 11.957 33.6152 16.3942C28.7393 20.8314 26 26.8495 26 33.1247V62.7003C26 64.8966 25.0413 67.0029 23.3347 68.5559C21.6281 70.109 19.3135 70.9814 16.9 70.9814C12.4178 70.9814 8.11926 69.3611 4.9499 66.477C1.78053 63.5928 6.00129e-07 59.681 6.00129e-07 55.6021V54.4191C-0.00112294 50.4357 1.57539 46.5854 4.44056 43.5739C7.30574 40.5624 11.2676 38.5914 15.6 38.0224V33.1247Z" fill="black"/>
</svg>
