<svg width="100" height="89" viewBox="0 0 100 89" fill="none" xmlns="http://www.w3.org/2000/svg">
<mask id="mask0_492_130" style="mask-type:alpha" maskUnits="userSpaceOnUse" x="0" y="0" width="100" height="89">
<rect width="100" height="89" fill="#D9D9D9"/>
</mask>
<g mask="url(#mask0_492_130)">
<path d="M12.4998 74.1665C10.2082 74.1665 8.24637 73.4403 6.61442 71.9878C4.98248 70.5354 4.1665 68.7894 4.1665 66.7498V29.6665C4.1665 28.6158 4.56581 27.735 5.36442 27.0243C6.16303 26.3135 7.15261 25.9581 8.33317 25.9581C9.51373 25.9581 10.5033 26.3135 11.3019 27.0243C12.1005 27.735 12.4998 28.6158 12.4998 29.6665V66.7498H79.1665C80.3471 66.7498 81.3366 67.1052 82.1352 67.8159C82.9339 68.5267 83.3332 69.4074 83.3332 70.4581C83.3332 71.5088 82.9339 72.3896 82.1352 73.1003C81.3366 73.8111 80.3471 74.1665 79.1665 74.1665H12.4998ZM29.1665 59.3331C26.8748 59.3331 24.913 58.6069 23.2811 57.1545C21.6491 55.7021 20.8332 53.956 20.8332 51.9165V22.2498C20.8332 20.2102 21.6491 18.4642 23.2811 17.0118C24.913 15.5593 26.8748 14.8331 29.1665 14.8331H87.4998C89.7915 14.8331 91.7533 15.5593 93.3853 17.0118C95.0172 18.4642 95.8332 20.2102 95.8332 22.2498V51.9165C95.8332 53.956 95.0172 55.7021 93.3853 57.1545C91.7533 58.6069 89.7915 59.3331 87.4998 59.3331H29.1665ZM37.4998 51.9165C37.4998 49.8769 36.6839 48.1309 35.0519 46.6784C33.42 45.226 31.4582 44.4998 29.1665 44.4998V51.9165H37.4998ZM79.1665 51.9165H87.4998V44.4998C85.2082 44.4998 83.2464 45.226 81.6144 46.6784C79.9825 48.1309 79.1665 49.8769 79.1665 51.9165ZM58.3332 48.2081C61.8054 48.2081 64.7568 47.1265 67.1873 44.9633C69.6179 42.8001 70.8332 40.1734 70.8332 37.0831C70.8332 33.9929 69.6179 31.3661 67.1873 29.2029C64.7568 27.0397 61.8054 25.9581 58.3332 25.9581C54.8609 25.9581 51.9096 27.0397 49.479 29.2029C47.0484 31.3661 45.8332 33.9929 45.8332 37.0831C45.8332 40.1734 47.0484 42.8001 49.479 44.9633C51.9096 47.1265 54.8609 48.2081 58.3332 48.2081ZM29.1665 29.6665C31.4582 29.6665 33.42 28.9402 35.0519 27.4878C36.6839 26.0354 37.4998 24.2894 37.4998 22.2498H29.1665V29.6665ZM87.4998 29.6665V22.2498H79.1665C79.1665 24.2894 79.9825 26.0354 81.6144 27.4878C83.2464 28.9402 85.2082 29.6665 87.4998 29.6665Z" fill="#1C1B1F"/>
</g>
</svg>
