<svg width="85" height="82" viewBox="0 0 85 82" fill="none" xmlns="http://www.w3.org/2000/svg">
<path d="M60.5352 1.68052e-05C56.6632 -0.00145766 52.8462 0.884251 49.3984 2.58424C45.9506 4.28422 42.9706 6.74988 40.7036 9.77825C38.4366 12.8066 36.9475 16.3111 36.3589 20.0033C35.7702 23.6954 36.0989 27.4696 37.3178 31.0153L2.26284 64.8436C0.813916 66.2424 0 68.139 0 70.1166C0 72.0941 0.813916 73.9907 2.26284 75.3895L6.84791 79.813C7.56561 80.5063 8.41792 81.0563 9.35611 81.4316C10.2943 81.8068 11.3 82 12.3156 82C13.3312 82 14.3369 81.8068 15.275 81.4316C16.2132 81.0563 17.0655 80.5063 17.7832 79.813L52.8425 45.9847C57.0276 47.3257 61.5107 47.5497 65.817 46.6331C70.1233 45.7165 74.0925 43.6933 77.3042 40.7779C80.5159 37.8625 82.8506 34.1634 84.061 30.0723C85.2714 25.9811 85.3124 21.6504 84.1797 17.5386C83.0203 13.3169 77.8948 12.8964 75.3233 15.3773L67.8137 22.6181C67.4051 23.0275 66.916 23.3542 66.3749 23.5791C65.8339 23.804 65.2518 23.9226 64.6627 23.9279C64.0736 23.9333 63.4894 23.8253 62.944 23.6103C62.3987 23.3953 61.9033 23.0775 61.4867 22.6756C61.0701 22.2737 60.7408 21.7958 60.5179 21.2696C60.295 20.7435 60.1831 20.1798 60.1887 19.6115C60.1942 19.0432 60.3171 18.4816 60.5502 17.9596C60.7834 17.4376 61.122 16.9657 61.5463 16.5715L69.0515 9.32646C71.623 6.84558 71.1872 1.90063 66.8069 0.782127C64.7618 0.260485 62.655 -0.0024215 60.5395 1.68052e-05" fill="black"/>
</svg>
