<svg width="20" height="20" viewBox="0 0 20 20" fill="none" xmlns="http://www.w3.org/2000/svg">
<g clip-path="url(#clip0_267_117)">
<path d="M16.6663 5V10H3.33301M9.99967 5V15M3.33301 5V15" stroke="#1E1E1E" stroke-width="2" stroke-linecap="round" stroke-linejoin="round"/>
<path d="M18.3332 3.33332C18.3332 3.77535 18.1576 4.19927 17.845 4.51183C17.5325 4.8244 17.1085 4.99999 16.6665 4.99999C16.2245 4.99999 15.8006 4.8244 15.488 4.51183C15.1754 4.19927 14.9998 3.77535 14.9998 3.33332C14.9998 2.8913 15.1754 2.46737 15.488 2.15481C15.8006 1.84225 16.2245 1.66666 16.6665 1.66666C17.1085 1.66666 17.5325 1.84225 17.845 2.15481C18.1576 2.46737 18.3332 2.8913 18.3332 3.33332ZM11.6665 3.33332C11.6665 3.77535 11.4909 4.19927 11.1783 4.51183C10.8658 4.8244 10.4419 4.99999 9.99984 4.99999C9.55781 4.99999 9.13389 4.8244 8.82133 4.51183C8.50877 4.19927 8.33317 3.77535 8.33317 3.33332C8.33317 2.8913 8.50877 2.46737 8.82133 2.15481C9.13389 1.84225 9.55781 1.66666 9.99984 1.66666C10.4419 1.66666 10.8658 1.84225 11.1783 2.15481C11.4909 2.46737 11.6665 2.8913 11.6665 3.33332ZM4.99984 3.33332C4.99984 3.77535 4.82424 4.19927 4.51168 4.51183C4.19912 4.8244 3.7752 4.99999 3.33317 4.99999C2.89114 4.99999 2.46722 4.8244 2.15466 4.51183C1.8421 4.19927 1.6665 3.77535 1.6665 3.33332C1.6665 2.8913 1.8421 2.46737 2.15466 2.15481C2.46722 1.84225 2.89114 1.66666 3.33317 1.66666C3.7752 1.66666 4.19912 1.84225 4.51168 2.15481C4.82424 2.46737 4.99984 2.8913 4.99984 3.33332ZM11.6665 16.6667C11.6665 17.1087 11.4909 17.5326 11.1783 17.8452C10.8658 18.1577 10.4419 18.3333 9.99984 18.3333C9.55781 18.3333 9.13389 18.1577 8.82133 17.8452C8.50877 17.5326 8.33317 17.1087 8.33317 16.6667C8.33317 16.2246 8.50877 15.8007 8.82133 15.4881C9.13389 15.1756 9.55781 15 9.99984 15C10.4419 15 10.8658 15.1756 11.1783 15.4881C11.4909 15.8007 11.6665 16.2246 11.6665 16.6667ZM4.99984 16.6667C4.99984 17.1087 4.82424 17.5326 4.51168 17.8452C4.19912 18.1577 3.7752 18.3333 3.33317 18.3333C2.89114 18.3333 2.46722 18.1577 2.15466 17.8452C1.8421 17.5326 1.6665 17.1087 1.6665 16.6667C1.6665 16.2246 1.8421 15.8007 2.15466 15.4881C2.46722 15.1756 2.89114 15 3.33317 15C3.7752 15 4.19912 15.1756 4.51168 15.4881C4.82424 15.8007 4.99984 16.2246 4.99984 16.6667ZM16.6665 18.3333C17.1085 18.3333 17.5325 18.1577 17.845 17.8452C18.1576 17.5326 18.3332 17.1087 18.3332 16.6667C18.3332 16.2246 18.1576 15.8007 17.845 15.4881C17.5325 15.1756 17.1085 15 16.6665 15C16.2245 15 15.8006 15.1756 15.488 15.4881C15.1754 15.8007 14.9998 16.2246 14.9998 16.6667C14.9998 17.1087 15.1754 17.5326 15.488 17.8452C15.8006 18.1577 16.2245 18.3333 16.6665 18.3333Z" stroke="#1E1E1E" stroke-width="2" stroke-linecap="round" stroke-linejoin="round"/>
</g>
<defs>
<clipPath id="clip0_267_117">
<rect width="20" height="20" fill="white"/>
</clipPath>
</defs>
</svg>
